<svg id="Logo_over_dark" data-name="Logo over dark" xmlns="http://www.w3.org/2000/svg" width="212" height="44" viewBox="0 0 212 44">
  <g id="Group_2253" data-name="Group 2253">
    <g id="Group_2251" data-name="Group 2251" transform="translate(76.181 4.203)">
      <path id="Path_1909" data-name="Path 1909" d="M129.862,31.382V20.5H127.24V16.427h2.622V10.75H134.6v5.677h5.562V20.5H134.6V30.636a2.256,2.256,0,0,0,2.544,2.586,6.36,6.36,0,0,0,2.935-.7V36.4a8.168,8.168,0,0,1-4.27,1.058c-3.482,0-5.953-1.527-5.953-6.068Z" transform="translate(-127.24 -8.489)" fill="#011AC2"/>
      <path id="Path_1910" data-name="Path 1910" d="M151.6,30.322v-.078c0-5.911,4.191-10.764,10.1-10.764,6.579,0,9.9,5.166,9.9,11.119,0,.433-.036.86-.078,1.329h-15.19a5.771,5.771,0,0,0,5.953,5.244,7.5,7.5,0,0,0,5.6-2.465l2.778,2.465a10.456,10.456,0,0,1-8.455,3.879,10.314,10.314,0,0,1-10.608-10.728Zm15.31-1.527c-.313-3.055-2.117-5.442-5.244-5.442-2.9,0-4.931,2.231-5.364,5.442Z" transform="translate(-136.951 -11.969)" fill="#011AC2"/>
      <path id="Path_1911" data-name="Path 1911" d="M189.36,7.04H194.1V35.622H189.36Z" transform="translate(-152.005 -7.01)" fill="#011AC2"/>
      <path id="Path_1912" data-name="Path 1912" d="M201.73,30.322v-.078c0-5.911,4.191-10.764,10.1-10.764,6.579,0,9.9,5.166,9.9,11.119,0,.433-.042.86-.078,1.329h-15.19a5.771,5.771,0,0,0,5.953,5.244,7.5,7.5,0,0,0,5.6-2.465l2.778,2.465a10.456,10.456,0,0,1-8.455,3.879,10.314,10.314,0,0,1-10.608-10.728Zm15.31-1.527c-.313-3.055-2.117-5.442-5.244-5.442-2.9,0-4.931,2.231-5.364,5.442Z" transform="translate(-156.936 -11.969)" fill="#011AC2"/>
      <path id="Path_1913" data-name="Path 1913" d="M236.23,37.923l2.117-3.211a11.7,11.7,0,0,0,6.771,2.544c2.111,0,3.211-.86,3.211-2.231v-.078c0-1.606-2.195-2.153-4.618-2.9-3.055-.86-6.458-2.117-6.458-6.068V25.9c0-3.915,3.247-6.3,7.36-6.3a14.328,14.328,0,0,1,7.595,2.351l-1.876,3.368a12,12,0,0,0-5.833-1.96c-1.84,0-2.9.86-2.9,2.039v.078c0,1.527,2.231,2.153,4.66,2.935,3.013.938,6.422,2.309,6.422,6.031v.078c0,4.348-3.368,6.5-7.673,6.5a14.528,14.528,0,0,1-8.768-3.091Z" transform="translate(-170.69 -12.017)" fill="#011AC2"/>
      <path id="Path_1914" data-name="Path 1914" d="M268.009,14.928h4.739V35.6h-4.739Zm4.919-5.334a2.6,2.6,0,1,1-2.6-2.6A2.6,2.6,0,0,1,272.928,9.594Z" transform="translate(-183.244 -6.99)" fill="#011AC2"/>
      <path id="Path_1915" data-name="Path 1915" d="M281.712,44.454l1.762-3.56a13.541,13.541,0,0,0,7.36,2.195c4.227,0,6.537-2.195,6.537-6.344V35.139a8.663,8.663,0,0,1-7.282,3.8,9.292,9.292,0,0,1-9.4-9.67v-.078a9.324,9.324,0,0,1,9.4-9.712A8.91,8.91,0,0,1,297.329,23V19.913h4.739V36.354c0,3.482-.9,6.068-2.622,7.793-1.882,1.876-4.775,2.778-8.5,2.778a17.827,17.827,0,0,1-9.243-2.465Zm15.7-15.232v-.078a5.772,5.772,0,0,0-6.068-5.677,5.588,5.588,0,0,0-5.875,5.677v.078a5.629,5.629,0,0,0,5.875,5.677A5.793,5.793,0,0,0,297.413,29.222Z" transform="translate(-188.414 -11.969)" fill="#011AC2"/>
      <path id="Path_1916" data-name="Path 1916" d="M322.236,19.9h4.739v3.169a7.487,7.487,0,0,1,6.458-3.6c4.66,0,7.36,3.133,7.36,7.908V40.571h-4.739V28.827c0-3.211-1.606-5.051-4.426-5.051s-4.66,1.918-4.66,5.129V40.571H322.23V19.9Z" transform="translate(-204.975 -11.965)" fill="#011AC2"/>
    </g>
    <g id="Group_2252" data-name="Group 2252">
      <path id="Path_1917" data-name="Path 1917" d="M77.221,17.6a22.322,22.322,0,0,0-1.389-4.4,22.017,22.017,0,0,0-2.538-4.36.182.182,0,0,1-.03-.042,22.063,22.063,0,0,0-4.4-4.4h0a21.673,21.673,0,0,0-4.4-2.568,21.319,21.319,0,0,0-4.4-1.389A22.077,22.077,0,0,0,55.669,0h0a22.062,22.062,0,0,0-4.4.439c-.6.12-1.185.265-1.762.433a21.793,21.793,0,0,0-2.634.956,22.18,22.18,0,0,0-2.2,1.112,21.427,21.427,0,0,0-2.2,1.455h0a22.815,22.815,0,0,0-1.75,1.467,22.168,22.168,0,0,0-2.64,2.929h0c-.15.2-.295.4-.439.607a21.7,21.7,0,0,0-2.129,3.794c-.024.06-.048.114-.072.174A21.834,21.834,0,0,0,34.135,17.6v.024c-.144-.012-.289-.024-.433-.024a4.4,4.4,0,0,0,0,8.8,3.58,3.58,0,0,0,.439-.024A4.405,4.405,0,0,0,38.1,22.262h0v-.529h0c0-.108,0-.216.006-.325a17.606,17.606,0,0,1,1.311-6.11,17.507,17.507,0,0,1,1.034-2.1,18.319,18.319,0,0,1,1.167-1.768c.283-.373.577-.74.884-1.088a16.364,16.364,0,0,1,1.551-1.545q.316-.28.649-.541a18.09,18.09,0,0,1,2.207-1.509,18.48,18.48,0,0,1,1.756-.89,17.156,17.156,0,0,1,2.646-.908A16.63,16.63,0,0,1,53.5,4.528,17.633,17.633,0,0,1,55.7,4.4h.012A17.583,17.583,0,0,1,67.347,8.8a18.407,18.407,0,0,1,1.569,1.569A17.907,17.907,0,0,1,70.955,13.2a17.331,17.331,0,0,1,1.8,4.4,17.568,17.568,0,0,1-3.837,16.038,16.81,16.81,0,0,1-1.569,1.569,17.569,17.569,0,0,1-11.636,4.4H53.39a27.012,27.012,0,0,1-2.075,2.075c-.565.505-1.149.986-1.756,1.443.577.168,1.161.313,1.756.433a22.062,22.062,0,0,0,4.4.439h0A21.886,21.886,0,0,0,68.9,39.616l.018-.012a22.162,22.162,0,0,0,4.39-4.39.33.33,0,0,1,.042-.054,22.2,22.2,0,0,0,2.532-4.348,21.319,21.319,0,0,0,1.389-4.4,22.077,22.077,0,0,0,.439-4.4h0a22.077,22.077,0,0,0-.439-4.4ZM46.871,4.4" transform="translate(-11.681)" fill="#011AC2"/>
      <path id="Path_1918" data-name="Path 1918" d="M43.988,17.6h-.012c-.144,0-.283.006-.427.018A4.4,4.4,0,0,0,39.586,21.7v.553a17.731,17.731,0,0,1-.553,4.137,17.561,17.561,0,0,1-1.8,4.4,18.319,18.319,0,0,1-1.167,1.768c-.277.373-.571.728-.878,1.076A17.3,17.3,0,0,1,33.633,35.2c-.21.186-.427.367-.643.541a17.7,17.7,0,0,1-2.195,1.5,17.025,17.025,0,0,1-1.75.884,17.247,17.247,0,0,1-2.652.914,17.592,17.592,0,0,1-13.205-1.792A18.044,18.044,0,0,1,10.343,35.2a17.3,17.3,0,0,1-1.557-1.557A17.771,17.771,0,0,1,6.741,30.8a17.331,17.331,0,0,1-1.8-4.4,17.622,17.622,0,0,1,1.8-13.205,18.044,18.044,0,0,1,2.045-2.844,17.3,17.3,0,0,1,1.557-1.557,17.771,17.771,0,0,1,2.844-2.045,17.331,17.331,0,0,1,4.4-1.8,17.692,17.692,0,0,1,4.4-.553h2.321a27.012,27.012,0,0,1,2.075-2.075c.565-.505,1.155-.992,1.762-1.449C27.571.7,26.982.559,26.387.439A22.062,22.062,0,0,0,21.991,0h0a21.854,21.854,0,0,0-13.2,4.4h0A22.253,22.253,0,0,0,4.4,8.8h0A21.958,21.958,0,0,0,.006,22H0A21.886,21.886,0,0,0,4.384,35.19l.012.018a22.162,22.162,0,0,0,4.39,4.39l.018.012a22.105,22.105,0,0,0,4.384,2.556,21.319,21.319,0,0,0,4.4,1.389,22.077,22.077,0,0,0,4.4.439h0a22.062,22.062,0,0,0,4.4-.439c.6-.12,1.179-.265,1.756-.433a21.785,21.785,0,0,0,4.847-2.069A22.322,22.322,0,0,0,35.184,39.6h.006c.607-.463,1.191-.95,1.75-1.467A22.349,22.349,0,0,0,39.592,35.2h0c.15-.2.295-.4.433-.6a22.123,22.123,0,0,0,2.135-3.794c.024-.06.048-.114.072-.174A21.849,21.849,0,0,0,43.549,26.4v-.018q.216.018.433.018h.012a4.4,4.4,0,0,0,0-8.8Zm-13.2,22" fill="#011AC2"/>
      <path id="Path_1919" data-name="Path 1919" d="M63.014,27.811a13.164,13.164,0,0,1-3.361,8.8,13.824,13.824,0,0,1-1.028,1.028,13.183,13.183,0,0,1-7.914,3.343,25.716,25.716,0,0,0,2.008-4.372c.066-.186.132-.373.192-.559a8.462,8.462,0,0,0,1.311-.625,8.806,8.806,0,0,0,0-15.238,9.05,9.05,0,0,0-1.311-.625,8.78,8.78,0,0,0-3.091-.559h-.012A8.8,8.8,0,0,0,41.023,27.4v.1c0,.1-.006.21-.006.319s0,.21.006.319a13.275,13.275,0,0,1-.746,4.083,13,13,0,0,1-1.455,2.9,13.322,13.322,0,0,1-1.155,1.491,13.063,13.063,0,0,1-1.04,1.04c-.283.253-.583.5-.884.728a13.254,13.254,0,0,1-3.512,1.882c-.144.048-.289.1-.439.144a13.257,13.257,0,0,1-3.963.607c-.295,0-.6-.012-.884-.03a13.152,13.152,0,0,1-7.914-3.331A13.2,13.2,0,0,1,26.945,14.63,26.215,26.215,0,0,0,24.931,19c-.066.186-.126.373-.192.559a9.022,9.022,0,0,0-1.311.619,8.8,8.8,0,0,0-4.4,7.625,8.743,8.743,0,0,0,1.179,4.4,8.859,8.859,0,0,0,3.223,3.223,8.435,8.435,0,0,0,1.311.619,8.772,8.772,0,0,0,3.085.559,8.739,8.739,0,0,0,4.4-1.179,9.05,9.05,0,0,0,1.311-.926,8.8,8.8,0,0,0,3.085-6.38c0,.066,0,.132.006.192V27.294a13.246,13.246,0,0,1,.74-3.891,13,13,0,0,1,1.455-2.9A13.391,13.391,0,0,1,39.976,19a14.314,14.314,0,0,1,1.046-1.046c.283-.253.577-.493.878-.722a13.343,13.343,0,0,1,3.524-1.888c.144-.054.295-.1.439-.144a13.175,13.175,0,0,1,3.951-.6h.012c.295,0,.6.012.884.03a13.029,13.029,0,0,1,3.512.728,13.246,13.246,0,0,1,4.4,2.616A13.824,13.824,0,0,1,59.652,19a13.164,13.164,0,0,1,3.361,8.8Z" transform="translate(-5.832 -5.82)" fill="#011AC2"/>
    </g>
  </g>
</svg>
